<svg xmlns="http://www.w3.org/2000/svg" xmlns:xlink="http://www.w3.org/1999/xlink" version="1.1"
	id="Layer_1" x="0px" y="0px" viewBox="0 0 432 648" style="enable-background:new 0 0 432 648;"
	xml:space="preserve">
	 <style xmlns="http://www.w3.org/2000/svg" type="text/css">
		.st0{fill:#FFFFFF;}
		.st1{fill:#E92A2A;}
		.st2{fill:#D52626;}
		.st3{fill:#E9E7E9;}
		.st4{fill:#A89FA8;}
		.st5{fill:#9A1A1C;}
		.st6{fill:#8D1819;}
	</style>
<g id="peroneus-longus">
	<title>Peroneus Longus</title>
	
	<path class="st1" d="M150.95,487.32c0.08-12.82,0.22-24.7,0.3-37.52c-1.71-3.19-4.09-8.19-5.05-11.25   c-1.71,4.09-6.91,17.06-7.06,25.22c-0.08,4.66,1.43,15.14,3.03,26.25c1.82,12.64,3.91,25.72,3.54,31.07   c-0.04,0.66,0.09,1.48,0.02,2.05c6.79-9.83,5.15-23.88,5.21-35.22V487.32z"/>
	<g>
		<path class="st2" d="M150.27,511.32c-7.22-41.39-3.4-62.16-1.88-66.9l0.55,0.62c-1.5,4.69-5.6,22.82,1.59,64.03L150.27,511.32z"/>
	</g>
	<g>
		<path class="st2" d="M148.21,518.34c-11.08-54.36-4.1-70.49-1.12-77.38l0.54,0.63c-2.95,6.81-9.95,21.92,1.08,76.02L148.21,518.34    z"/>
	</g>
	<path class="st1" d="M236.58,487.32c-0.08-12.82-0.22-24.7-0.3-37.52c1.71-3.19,4.09-8.19,5.05-11.25   c1.71,4.09,6.91,17.06,7.06,25.22c0.08,4.66-1.43,15.14-3.03,26.25c-1.82,12.64-3.91,25.72-3.54,31.07   c0.04,0.66-0.09,1.48-0.02,2.05c-6.79-9.83-5.15-23.88-5.21-35.22V487.32z"/>
	<g>
		<path class="st2" d="M237.25,511.32c7.22-41.39,3.4-62.16,1.88-66.9l-0.55,0.62c1.5,4.69,5.6,22.82-1.59,64.03L237.25,511.32z"/>
	</g>
	<g>
		<path class="st2" d="M239.32,518.34c11.08-54.36,4.1-70.49,1.12-77.38l-0.54,0.63c2.95,6.81,9.95,21.92-1.08,76.02L239.32,518.34z    "/>
	</g>
</g>
</svg>